<svg
  xmlns="http://www.w3.org/2000/svg"
  width="1512"
  height="1080"
  viewBox="0 0 1512 1080"
  role="img"
  aria-labelledby="title desc"
>
  <title id="title">AWS Console EKS Compute tab</title>
  <desc id="desc">
    Reference screenshot showing the Amazon EKS cluster Compute tab with a managed node group
    reporting an Active status.
  </desc>
  <defs>
    <style>
      .bg { fill: #f2f3f3; }
      .topnav { fill: #232f3e; }
      .subnav { fill: #161e2d; }
      .panel { fill: #ffffff; stroke: #d5dbdb; stroke-width: 1; }
      .muted { fill: #687078; font: 24px "Amazon Ember", "Segoe UI", Arial, sans-serif; }
      .text { fill: #16191f; font: 26px "Amazon Ember", "Segoe UI", Arial, sans-serif; }
      .small { fill: #414750; font: 21px "Amazon Ember", "Segoe UI", Arial, sans-serif; }
      .tiny { fill: #687078; font: 18px "Amazon Ember", "Segoe UI", Arial, sans-serif; }
      .th { fill: #687078; font: 20px "Amazon Ember", "Segoe UI", Arial, sans-serif; font-weight: 600; }
      .title { fill: #16191f; font: 38px "Amazon Ember", "Segoe UI", Arial, sans-serif; font-weight: 700; }
      .link { fill: #007eb9; font: 24px "Amazon Ember", "Segoe UI", Arial, sans-serif; }
      .crumb { fill: #007eb9; font: 21px "Amazon Ember", "Segoe UI", Arial, sans-serif; }
      .highlight { fill: #fff6cc; stroke: #f2c94c; stroke-width: 3; }
      .active { fill: #1d8102; }
      .tabon { fill: #16191f; font: 22px "Amazon Ember", "Segoe UI", Arial, sans-serif; font-weight: 600; }
      .taboff { fill: #687078; font: 22px "Amazon Ember", "Segoe UI", Arial, sans-serif; }
    </style>
  </defs>

  <rect class="bg" width="1512" height="1080" />

  <rect class="topnav" width="1512" height="56" />
  <text x="30" y="38" fill="#ff9900" font-family="Amazon Ember, Segoe UI, Arial, sans-serif" font-size="27" font-weight="700">aws</text>
  <rect x="270" y="12" width="520" height="32" rx="4" fill="#ffffff" opacity="0.95" />
  <text x="290" y="34" class="tiny">Search [Option+S]</text>
  <text x="1150" y="35" fill="#ffffff" font-family="Amazon Ember, Segoe UI, Arial" font-size="20">N. Virginia ▾</text>
  <text x="1360" y="35" fill="#ffffff" font-family="Amazon Ember, Segoe UI, Arial" font-size="20">nora-ops ▾</text>

  <rect class="subnav" y="56" width="1512" height="44" />
  <text x="30" y="85" fill="#ffffff" font-family="Amazon Ember, Segoe UI, Arial" font-size="22" font-weight="600">Amazon Elastic Kubernetes Service</text>

  <rect x="0" y="100" width="250" height="980" fill="#ffffff" />
  <line x1="250" y1="100" x2="250" y2="1080" stroke="#d5dbdb" />
  <text x="28" y="158" class="muted">Clusters</text>
  <rect x="0" y="186" width="250" height="46" fill="#f1faff" />
  <rect x="0" y="186" width="4" height="46" fill="#ec7211" />
  <text x="28" y="216" class="small" fill="#16191f">nora-eks-prod</text>
  <text x="48" y="280" class="muted">Overview</text>
  <text x="48" y="334" class="muted">Compute</text>
  <text x="48" y="388" class="muted">Networking</text>
  <text x="48" y="442" class="muted">Add-ons</text>

  <text x="290" y="150" class="crumb">EKS  ›  Clusters  ›  nora-eks-prod</text>
  <text x="290" y="208" class="title">nora-eks-prod</text>

  <!-- tabs, Compute active -->
  <text x="292" y="262" class="taboff">Overview</text>
  <text x="450" y="262" class="taboff">Resources</text>
  <text x="620" y="262" class="tabon">Compute</text>
  <rect x="618" y="278" width="108" height="4" fill="#ec7211" />
  <text x="780" y="262" class="taboff">Networking</text>
  <text x="970" y="262" class="taboff">Add-ons</text>
  <line x1="290" y1="282" x2="1470" y2="282" stroke="#e5e7eb" />

  <!-- node groups table -->
  <text x="290" y="346" class="title" font-size="30">Node groups (1)</text>
  <rect x="1300" y="318" width="170" height="46" rx="4" fill="#ec7211" />
  <text x="1322" y="348" fill="#ffffff" font-family="Amazon Ember, Segoe UI, Arial" font-size="22">Add node group</text>

  <rect x="290" y="380" width="1180" height="220" rx="6" class="panel" />
  <rect x="291" y="381" width="1178" height="48" fill="#fafafa" />
  <text x="320" y="412" class="th">Group name</text>
  <text x="620" y="412" class="th">Status</text>
  <text x="840" y="412" class="th">Instance type</text>
  <text x="1120" y="412" class="th">Desired size</text>
  <line x1="290" y1="430" x2="1470" y2="430" stroke="#e5e7eb" />

  <text x="320" y="494" class="link">nora-ng-1</text>
  <rect x="618" y="464" width="150" height="48" rx="6" class="highlight" />
  <circle cx="642" cy="488" r="9" class="active" />
  <text x="662" y="496" class="small" fill="#16191f">Active</text>
  <text x="840" y="494" class="small">t3.large</text>
  <text x="1120" y="494" class="small">2</text>
  <line x1="290" y1="528" x2="1470" y2="528" stroke="#f0f0f0" />
  <text x="320" y="572" class="tiny">AMI type: AL2_x86_64 · Capacity: On-Demand · Subnets: 2 private</text>

  <!-- nodes summary -->
  <rect x="290" y="632" width="1180" height="190" rx="6" class="panel" />
  <text x="320" y="678" class="text">Nodes</text>
  <line x1="320" y1="712" x2="1440" y2="712" stroke="#e5e7eb" />
  <text x="320" y="762" class="small">ip-10-0-12-31.ec2.internal</text>
  <circle cx="900" cy="755" r="8" class="active" />
  <text x="918" y="763" class="small" fill="#16191f">Ready</text>
  <text x="320" y="806" class="small">ip-10-0-44-9.ec2.internal</text>
  <circle cx="900" cy="799" r="8" class="active" />
  <text x="918" y="807" class="small" fill="#16191f">Ready</text>

  <!-- footer hint -->
  <rect x="290" y="858" width="1180" height="72" rx="6" fill="#f8fafc" stroke="#d5dbdb" />
  <text x="316" y="894" class="small">Confirm the node group reports Active and its nodes are Ready before registering the</text>
  <text x="316" y="922" class="small">cluster in Nora. A node group that is not Ready leaves agent pods Pending.</text>
</svg>
