<svg
  xmlns="http://www.w3.org/2000/svg"
  width="1512"
  height="1080"
  viewBox="0 0 1512 1080"
  role="img"
  aria-labelledby="title desc"
>
  <title id="title">Azure Portal AKS networking settings</title>
  <desc id="desc">
    Reference screenshot showing AKS networking settings and the LoadBalancer SKU field.
  </desc>
  <defs>
    <style>
      .bg {
        fill: #f5f7fb;
      }
      .top {
        fill: #0078d4;
      }
      .blade {
        fill: #ffffff;
        stroke: #d8dee8;
        stroke-width: 1;
      }
      .side {
        fill: #ffffff;
      }
      .title {
        fill: #111827;
        font:
          38px "Segoe UI",
          Arial,
          sans-serif;
        font-weight: 600;
      }
      .section {
        fill: #111827;
        font:
          30px "Segoe UI",
          Arial,
          sans-serif;
        font-weight: 600;
      }
      .text {
        fill: #1f2937;
        font:
          26px "Segoe UI",
          Arial,
          sans-serif;
      }
      .small {
        fill: #475569;
        font:
          21px "Segoe UI",
          Arial,
          sans-serif;
      }
      .tiny {
        fill: #64748b;
        font:
          18px "Segoe UI",
          Arial,
          sans-serif;
      }
      .link {
        fill: #0067b8;
        font:
          24px "Segoe UI",
          Arial,
          sans-serif;
      }
      .highlight {
        fill: #fff6cc;
        stroke: #f2c94c;
        stroke-width: 3;
      }
      .row {
        fill: #ffffff;
        stroke: #e5e7eb;
        stroke-width: 1;
      }
      .pill {
        fill: #e7f2fb;
        stroke: #8dc8ef;
        stroke-width: 1;
      }
    </style>
  </defs>

  <rect class="bg" width="1512" height="1080" />
  <rect class="top" width="1512" height="64" />
  <text
    x="30"
    y="41"
    fill="#ffffff"
    font-family="Segoe UI, Arial, sans-serif"
    font-size="27"
    font-weight="600"
  >
    Microsoft Azure
  </text>
  <rect x="282" y="14" width="620" height="36" rx="4" fill="#ffffff" opacity="0.96" />
  <text x="304" y="39" class="tiny">Search resources, services, and docs</text>
  <circle cx="1332" cy="32" r="14" fill="#ffffff" opacity="0.9" />
  <circle cx="1384" cy="32" r="14" fill="#ffffff" opacity="0.9" />
  <circle cx="1436" cy="32" r="18" fill="#ffffff" opacity="0.9" />

  <rect x="0" y="64" width="230" height="1016" class="side" />
  <line x1="230" y1="64" x2="230" y2="1080" stroke="#d8dee8" />
  <text x="28" y="120" class="small">Overview</text>
  <text x="28" y="174" class="small">Connect</text>
  <text x="28" y="228" class="small">Node pools</text>
  <text x="28" y="282" class="small">Workloads</text>
  <text x="28" y="336" class="small">Services</text>
  <text x="28" y="408" class="tiny">Settings</text>
  <rect x="14" y="432" width="202" height="48" rx="4" fill="#eef6fd" />
  <rect x="14" y="432" width="4" height="48" fill="#0078d4" />
  <text x="28" y="464" class="small">Networking</text>
  <text x="28" y="520" class="small">Identity</text>
  <text x="28" y="574" class="small">Security</text>

  <rect x="258" y="92" width="1218" height="948" rx="6" class="blade" />
  <text x="292" y="154" class="title">nora-aks-prod | Networking</text>
  <text x="292" y="193" class="small">Kubernetes service</text>
  <line x1="258" y1="222" x2="1476" y2="222" stroke="#e5e7eb" />

  <rect x="292" y="254" width="162" height="46" rx="4" class="pill" />
  <text x="326" y="285" class="link">Refresh</text>
  <rect x="472" y="254" width="178" height="46" rx="4" fill="#ffffff" stroke="#cbd5e1" />
  <text x="504" y="285" class="small">Download</text>

  <text x="292" y="372" class="section">Network configuration</text>
  <rect x="292" y="408" width="1138" height="348" rx="6" fill="#ffffff" stroke="#d8dee8" />
  <rect x="318" y="442" width="1086" height="58" class="row" />
  <text x="342" y="480" class="small">Network plugin</text>
  <text x="868" y="480" class="text">Azure CNI</text>
  <rect x="318" y="500" width="1086" height="58" class="row" />
  <text x="342" y="538" class="small">Network policy</text>
  <text x="868" y="538" class="text">Azure</text>
  <rect x="318" y="558" width="1086" height="58" class="row" />
  <text x="342" y="596" class="small">Virtual network</text>
  <text x="868" y="596" class="link">nora-prod-vnet</text>
  <rect x="318" y="616" width="1086" height="58" class="row" />
  <text x="342" y="654" class="small">Subnet</text>
  <text x="868" y="654" class="link">aks-system-subnet</text>
  <rect x="318" y="674" width="1086" height="58" rx="4" class="highlight" />
  <text x="342" y="712" class="small">Load balancer SKU</text>
  <text x="868" y="712" class="text">Standard</text>

  <text x="292" y="820" class="section">Service traffic</text>
  <rect x="292" y="856" width="1138" height="136" rx="6" fill="#ffffff" stroke="#d8dee8" />
  <text x="322" y="906" class="small">
    Public agent Services use AKS LoadBalancer addresses. Restrict source ranges in Nora when
    possible.
  </text>
  <text x="322" y="952" class="small">
    For private agent traffic, set the Azure internal load balancer annotation in
    AKS_K8S_SERVICE_ANNOTATIONS_JSON.
  </text>
</svg>
